<?xml version="1.0" standalone="no"?>
 <!DOCTYPE svg PUBLIC "-//W3C//DTD SVG 1.1//EN" 
 "http://www.w3.org/Graphics/SVG/1.1/DTD/svg11.dtd"> 
<svg xmlns="http://www.w3.org/2000/svg" version="1.1" 
    width="29.7002cm" height="21.0007cm" viewBox="0 0 116930 82680 ">
<title>SVG Picture created as dohome_switch-F.Cu.svg date 2017/05/12 10:14:42 </title>
  <desc>Picture generated by PCBNEW </desc>
<g style="fill:#000000; fill-opacity:1;stroke:#000000; stroke-opacity:1;
stroke-linecap:round; stroke-linejoin:round; "
 transform="translate(0 0) scale(1 1)">
</g>
<g style="fill:#000000; fill-opacity:0.0; 
stroke:#000000; stroke-width:-0.000393701; stroke-opacity:1; 
stroke-linecap:round; stroke-linejoin:round;">
</g>
<g style="fill:#000000; fill-opacity:0.0; 
stroke:#000000; stroke-width:39.3701; stroke-opacity:1; 
stroke-linecap:round; stroke-linejoin:round;">
</g>
<g style="fill:#000000; fill-opacity:0.0; 
stroke:#000000; stroke-width:59.0551; stroke-opacity:1; 
stroke-linecap:round; stroke-linejoin:round;">
<rect x="69685.9" y="65357.2" width="42519.7" height="12598.4" rx="0" />
</g>
<g style="fill:#000000; fill-opacity:0.0; 
stroke:#000000; stroke-width:39.3701; stroke-opacity:1; 
stroke-linecap:round; stroke-linejoin:round;">
</g>
<g style="fill:#000000; fill-opacity:0.0; 
stroke:#000000; stroke-width:59.0551; stroke-opacity:1; 
stroke-linecap:round; stroke-linejoin:round;">
<rect x="3937.01" y="3937.01" width="109056" height="74806" rx="0" />
</g>
<g style="fill:#000000; fill-opacity:0.0; 
stroke:#000000; stroke-width:39.3701; stroke-opacity:1; 
stroke-linecap:round; stroke-linejoin:round;">
</g>
<g style="fill:#000000; fill-opacity:0.0; 
stroke:#000000; stroke-width:59.0551; stroke-opacity:1; 
stroke-linecap:round; stroke-linejoin:round;">
<rect x="4724.41" y="4724.41" width="107481" height="73231.2" rx="0" />
</g>
<g style="fill:#000000; fill-opacity:0.0; 
stroke:#000000; stroke-width:39.3701; stroke-opacity:1; 
stroke-linecap:round; stroke-linejoin:round;">
</g>
<g style="fill:#000000; fill-opacity:0.0; 
stroke:#000000; stroke-width:59.0551; stroke-opacity:1; 
stroke-linecap:round; stroke-linejoin:round;">
<path d="M23622 4724
L23622 3937
" />
</g>
<g style="fill:#000000; fill-opacity:0.0; 
stroke:#000000; stroke-width:39.3701; stroke-opacity:1; 
stroke-linecap:round; stroke-linejoin:round;">
</g>
<g style="fill:#000000; fill-opacity:0.0; 
stroke:#000000; stroke-width:59.0551; stroke-opacity:1; 
stroke-linecap:round; stroke-linejoin:round;">
<path d="M43307 4724
L43307 3937
" />
</g>
<g style="fill:#000000; fill-opacity:0.0; 
stroke:#000000; stroke-width:39.3701; stroke-opacity:1; 
stroke-linecap:round; stroke-linejoin:round;">
</g>
<g style="fill:#000000; fill-opacity:0.0; 
stroke:#000000; stroke-width:59.0551; stroke-opacity:1; 
stroke-linecap:round; stroke-linejoin:round;">
<path d="M62992 4724
L62992 3937
" />
</g>
<g style="fill:#000000; fill-opacity:0.0; 
stroke:#000000; stroke-width:39.3701; stroke-opacity:1; 
stroke-linecap:round; stroke-linejoin:round;">
</g>
<g style="fill:#000000; fill-opacity:0.0; 
stroke:#000000; stroke-width:59.0551; stroke-opacity:1; 
stroke-linecap:round; stroke-linejoin:round;">
<path d="M82677 4724
L82677 3937
" />
</g>
<g style="fill:#000000; fill-opacity:0.0; 
stroke:#000000; stroke-width:39.3701; stroke-opacity:1; 
stroke-linecap:round; stroke-linejoin:round;">
</g>
<g style="fill:#000000; fill-opacity:0.0; 
stroke:#000000; stroke-width:59.0551; stroke-opacity:1; 
stroke-linecap:round; stroke-linejoin:round;">
<path d="M102362 4724
L102362 3937
" />
</g>
<g style="fill:#000000; fill-opacity:0.0; 
stroke:#000000; stroke-width:39.3701; stroke-opacity:1; 
stroke-linecap:round; stroke-linejoin:round;">
</g>
<g style="fill:#000000; fill-opacity:0.0; 
stroke:#000000; stroke-width:59.0551; stroke-opacity:1; 
stroke-linecap:round; stroke-linejoin:round;">
<path d="M14169 4562
L13877 4562
" />
<path d="M14023 4562
L14023 4050
L13974 4123
L13925 4172
L13877 4196
" />
</g>
<g style="fill:#000000; fill-opacity:0.0; 
stroke:#000000; stroke-width:39.3701; stroke-opacity:1; 
stroke-linecap:round; stroke-linejoin:round;">
</g>
<g style="fill:#000000; fill-opacity:0.0; 
stroke:#000000; stroke-width:59.0551; stroke-opacity:1; 
stroke-linecap:round; stroke-linejoin:round;">
<path d="M33562 4099
L33586 4074
L33635 4050
L33757 4050
L33805 4074
L33830 4099
L33854 4147
L33854 4196
L33830 4269
L33537 4562
L33854 4562
" />
</g>
<g style="fill:#000000; fill-opacity:0.0; 
stroke:#000000; stroke-width:39.3701; stroke-opacity:1; 
stroke-linecap:round; stroke-linejoin:round;">
</g>
<g style="fill:#000000; fill-opacity:0.0; 
stroke:#000000; stroke-width:59.0551; stroke-opacity:1; 
stroke-linecap:round; stroke-linejoin:round;">
<path d="M53222 4050
L53539 4050
L53368 4245
L53442 4245
L53490 4269
L53515 4294
L53539 4342
L53539 4464
L53515 4513
L53490 4537
L53442 4562
L53295 4562
L53247 4537
L53222 4513
" />
</g>
<g style="fill:#000000; fill-opacity:0.0; 
stroke:#000000; stroke-width:39.3701; stroke-opacity:1; 
stroke-linecap:round; stroke-linejoin:round;">
</g>
<g style="fill:#000000; fill-opacity:0.0; 
stroke:#000000; stroke-width:59.0551; stroke-opacity:1; 
stroke-linecap:round; stroke-linejoin:round;">
<path d="M73175 4221
L73175 4562
" />
<path d="M73053 4026
L72932 4391
L73248 4391
" />
</g>
<g style="fill:#000000; fill-opacity:0.0; 
stroke:#000000; stroke-width:39.3701; stroke-opacity:1; 
stroke-linecap:round; stroke-linejoin:round;">
</g>
<g style="fill:#000000; fill-opacity:0.0; 
stroke:#000000; stroke-width:59.0551; stroke-opacity:1; 
stroke-linecap:round; stroke-linejoin:round;">
<path d="M92885 4050
L92641 4050
L92617 4294
L92641 4269
L92690 4245
L92812 4245
L92860 4269
L92885 4294
L92909 4342
L92909 4464
L92885 4513
L92860 4537
L92812 4562
L92690 4562
L92641 4537
L92617 4513
" />
</g>
<g style="fill:#000000; fill-opacity:0.0; 
stroke:#000000; stroke-width:39.3701; stroke-opacity:1; 
stroke-linecap:round; stroke-linejoin:round;">
</g>
<g style="fill:#000000; fill-opacity:0.0; 
stroke:#000000; stroke-width:59.0551; stroke-opacity:1; 
stroke-linecap:round; stroke-linejoin:round;">
<path d="M112545 4050
L112448 4050
L112399 4074
L112375 4099
L112326 4172
L112302 4269
L112302 4464
L112326 4513
L112350 4537
L112399 4562
L112497 4562
L112545 4537
L112570 4513
L112594 4464
L112594 4342
L112570 4294
L112545 4269
L112497 4245
L112399 4245
L112350 4269
L112326 4294
L112302 4342
" />
</g>
<g style="fill:#000000; fill-opacity:0.0; 
stroke:#000000; stroke-width:39.3701; stroke-opacity:1; 
stroke-linecap:round; stroke-linejoin:round;">
</g>
<g style="fill:#000000; fill-opacity:0.0; 
stroke:#000000; stroke-width:59.0551; stroke-opacity:1; 
stroke-linecap:round; stroke-linejoin:round;">
<path d="M23622 77955
L23622 78742
" />
</g>
<g style="fill:#000000; fill-opacity:0.0; 
stroke:#000000; stroke-width:39.3701; stroke-opacity:1; 
stroke-linecap:round; stroke-linejoin:round;">
</g>
<g style="fill:#000000; fill-opacity:0.0; 
stroke:#000000; stroke-width:59.0551; stroke-opacity:1; 
stroke-linecap:round; stroke-linejoin:round;">
<path d="M43307 77955
L43307 78742
" />
</g>
<g style="fill:#000000; fill-opacity:0.0; 
stroke:#000000; stroke-width:39.3701; stroke-opacity:1; 
stroke-linecap:round; stroke-linejoin:round;">
</g>
<g style="fill:#000000; fill-opacity:0.0; 
stroke:#000000; stroke-width:59.0551; stroke-opacity:1; 
stroke-linecap:round; stroke-linejoin:round;">
<path d="M62992 77955
L62992 78742
" />
</g>
<g style="fill:#000000; fill-opacity:0.0; 
stroke:#000000; stroke-width:39.3701; stroke-opacity:1; 
stroke-linecap:round; stroke-linejoin:round;">
</g>
<g style="fill:#000000; fill-opacity:0.0; 
stroke:#000000; stroke-width:59.0551; stroke-opacity:1; 
stroke-linecap:round; stroke-linejoin:round;">
<path d="M82677 77955
L82677 78742
" />
</g>
<g style="fill:#000000; fill-opacity:0.0; 
stroke:#000000; stroke-width:39.3701; stroke-opacity:1; 
stroke-linecap:round; stroke-linejoin:round;">
</g>
<g style="fill:#000000; fill-opacity:0.0; 
stroke:#000000; stroke-width:59.0551; stroke-opacity:1; 
stroke-linecap:round; stroke-linejoin:round;">
<path d="M102362 77955
L102362 78742
" />
</g>
<g style="fill:#000000; fill-opacity:0.0; 
stroke:#000000; stroke-width:39.3701; stroke-opacity:1; 
stroke-linecap:round; stroke-linejoin:round;">
</g>
<g style="fill:#000000; fill-opacity:0.0; 
stroke:#000000; stroke-width:59.0551; stroke-opacity:1; 
stroke-linecap:round; stroke-linejoin:round;">
<path d="M14169 78580
L13877 78580
" />
<path d="M14023 78580
L14023 78069
L13974 78142
L13925 78190
L13877 78215
" />
</g>
<g style="fill:#000000; fill-opacity:0.0; 
stroke:#000000; stroke-width:39.3701; stroke-opacity:1; 
stroke-linecap:round; stroke-linejoin:round;">
</g>
<g style="fill:#000000; fill-opacity:0.0; 
stroke:#000000; stroke-width:59.0551; stroke-opacity:1; 
stroke-linecap:round; stroke-linejoin:round;">
<path d="M33562 78117
L33586 78093
L33635 78069
L33757 78069
L33805 78093
L33830 78117
L33854 78166
L33854 78215
L33830 78288
L33537 78580
L33854 78580
" />
</g>
<g style="fill:#000000; fill-opacity:0.0; 
stroke:#000000; stroke-width:39.3701; stroke-opacity:1; 
stroke-linecap:round; stroke-linejoin:round;">
</g>
<g style="fill:#000000; fill-opacity:0.0; 
stroke:#000000; stroke-width:59.0551; stroke-opacity:1; 
stroke-linecap:round; stroke-linejoin:round;">
<path d="M53222 78069
L53539 78069
L53368 78263
L53442 78263
L53490 78288
L53515 78312
L53539 78361
L53539 78483
L53515 78532
L53490 78556
L53442 78580
L53295 78580
L53247 78556
L53222 78532
" />
</g>
<g style="fill:#000000; fill-opacity:0.0; 
stroke:#000000; stroke-width:39.3701; stroke-opacity:1; 
stroke-linecap:round; stroke-linejoin:round;">
</g>
<g style="fill:#000000; fill-opacity:0.0; 
stroke:#000000; stroke-width:59.0551; stroke-opacity:1; 
stroke-linecap:round; stroke-linejoin:round;">
<path d="M73175 78239
L73175 78580
" />
<path d="M73053 78044
L72932 78410
L73248 78410
" />
</g>
<g style="fill:#000000; fill-opacity:0.0; 
stroke:#000000; stroke-width:39.3701; stroke-opacity:1; 
stroke-linecap:round; stroke-linejoin:round;">
</g>
<g style="fill:#000000; fill-opacity:0.0; 
stroke:#000000; stroke-width:59.0551; stroke-opacity:1; 
stroke-linecap:round; stroke-linejoin:round;">
<path d="M92885 78069
L92641 78069
L92617 78312
L92641 78288
L92690 78263
L92812 78263
L92860 78288
L92885 78312
L92909 78361
L92909 78483
L92885 78532
L92860 78556
L92812 78580
L92690 78580
L92641 78556
L92617 78532
" />
</g>
<g style="fill:#000000; fill-opacity:0.0; 
stroke:#000000; stroke-width:39.3701; stroke-opacity:1; 
stroke-linecap:round; stroke-linejoin:round;">
</g>
<g style="fill:#000000; fill-opacity:0.0; 
stroke:#000000; stroke-width:59.0551; stroke-opacity:1; 
stroke-linecap:round; stroke-linejoin:round;">
<path d="M112545 78069
L112448 78069
L112399 78093
L112375 78117
L112326 78190
L112302 78288
L112302 78483
L112326 78532
L112350 78556
L112399 78580
L112497 78580
L112545 78556
L112570 78532
L112594 78483
L112594 78361
L112570 78312
L112545 78288
L112497 78263
L112399 78263
L112350 78288
L112326 78312
L112302 78361
" />
</g>
<g style="fill:#000000; fill-opacity:0.0; 
stroke:#000000; stroke-width:39.3701; stroke-opacity:1; 
stroke-linecap:round; stroke-linejoin:round;">
</g>
<g style="fill:#000000; fill-opacity:0.0; 
stroke:#000000; stroke-width:59.0551; stroke-opacity:1; 
stroke-linecap:round; stroke-linejoin:round;">
<path d="M3937 23622
L4724 23622
" />
</g>
<g style="fill:#000000; fill-opacity:0.0; 
stroke:#000000; stroke-width:39.3701; stroke-opacity:1; 
stroke-linecap:round; stroke-linejoin:round;">
</g>
<g style="fill:#000000; fill-opacity:0.0; 
stroke:#000000; stroke-width:59.0551; stroke-opacity:1; 
stroke-linecap:round; stroke-linejoin:round;">
<path d="M3937 43307
L4724 43307
" />
</g>
<g style="fill:#000000; fill-opacity:0.0; 
stroke:#000000; stroke-width:39.3701; stroke-opacity:1; 
stroke-linecap:round; stroke-linejoin:round;">
</g>
<g style="fill:#000000; fill-opacity:0.0; 
stroke:#000000; stroke-width:59.0551; stroke-opacity:1; 
stroke-linecap:round; stroke-linejoin:round;">
<path d="M3937 62992
L4724 62992
" />
</g>
<g style="fill:#000000; fill-opacity:0.0; 
stroke:#000000; stroke-width:39.3701; stroke-opacity:1; 
stroke-linecap:round; stroke-linejoin:round;">
</g>
<g style="fill:#000000; fill-opacity:0.0; 
stroke:#000000; stroke-width:59.0551; stroke-opacity:1; 
stroke-linecap:round; stroke-linejoin:round;">
<path d="M4208 13864
L4452 13864
" />
<path d="M4160 14011
L4330 13499
L4501 14011
" />
</g>
<g style="fill:#000000; fill-opacity:0.0; 
stroke:#000000; stroke-width:39.3701; stroke-opacity:1; 
stroke-linecap:round; stroke-linejoin:round;">
</g>
<g style="fill:#000000; fill-opacity:0.0; 
stroke:#000000; stroke-width:59.0551; stroke-opacity:1; 
stroke-linecap:round; stroke-linejoin:round;">
<path d="M4367 33428
L4440 33452
L4464 33476
L4489 33525
L4489 33598
L4464 33647
L4440 33671
L4391 33696
L4196 33696
L4196 33184
L4367 33184
L4416 33208
L4440 33233
L4464 33281
L4464 33330
L4440 33379
L4416 33403
L4367 33428
L4196 33428
" />
</g>
<g style="fill:#000000; fill-opacity:0.0; 
stroke:#000000; stroke-width:39.3701; stroke-opacity:1; 
stroke-linecap:round; stroke-linejoin:round;">
</g>
<g style="fill:#000000; fill-opacity:0.0; 
stroke:#000000; stroke-width:59.0551; stroke-opacity:1; 
stroke-linecap:round; stroke-linejoin:round;">
<path d="M4489 53332
L4464 53356
L4391 53381
L4342 53381
L4269 53356
L4221 53308
L4196 53259
L4172 53161
L4172 53088
L4196 52991
L4221 52942
L4269 52893
L4342 52869
L4391 52869
L4464 52893
L4489 52918
" />
</g>
<g style="fill:#000000; fill-opacity:0.0; 
stroke:#000000; stroke-width:39.3701; stroke-opacity:1; 
stroke-linecap:round; stroke-linejoin:round;">
</g>
<g style="fill:#000000; fill-opacity:0.0; 
stroke:#000000; stroke-width:59.0551; stroke-opacity:1; 
stroke-linecap:round; stroke-linejoin:round;">
<path d="M4196 73066
L4196 72554
L4318 72554
L4391 72578
L4440 72627
L4464 72676
L4489 72773
L4489 72846
L4464 72944
L4440 72993
L4391 73041
L4318 73066
L4196 73066
" />
</g>
<g style="fill:#000000; fill-opacity:0.0; 
stroke:#000000; stroke-width:39.3701; stroke-opacity:1; 
stroke-linecap:round; stroke-linejoin:round;">
</g>
<g style="fill:#000000; fill-opacity:0.0; 
stroke:#000000; stroke-width:59.0551; stroke-opacity:1; 
stroke-linecap:round; stroke-linejoin:round;">
<path d="M112992 23622
L112205 23622
" />
</g>
<g style="fill:#000000; fill-opacity:0.0; 
stroke:#000000; stroke-width:39.3701; stroke-opacity:1; 
stroke-linecap:round; stroke-linejoin:round;">
</g>
<g style="fill:#000000; fill-opacity:0.0; 
stroke:#000000; stroke-width:59.0551; stroke-opacity:1; 
stroke-linecap:round; stroke-linejoin:round;">
<path d="M112992 43307
L112205 43307
" />
</g>
<g style="fill:#000000; fill-opacity:0.0; 
stroke:#000000; stroke-width:39.3701; stroke-opacity:1; 
stroke-linecap:round; stroke-linejoin:round;">
</g>
<g style="fill:#000000; fill-opacity:0.0; 
stroke:#000000; stroke-width:59.0551; stroke-opacity:1; 
stroke-linecap:round; stroke-linejoin:round;">
<path d="M112992 62992
L112205 62992
" />
</g>
<g style="fill:#000000; fill-opacity:0.0; 
stroke:#000000; stroke-width:39.3701; stroke-opacity:1; 
stroke-linecap:round; stroke-linejoin:round;">
</g>
<g style="fill:#000000; fill-opacity:0.0; 
stroke:#000000; stroke-width:59.0551; stroke-opacity:1; 
stroke-linecap:round; stroke-linejoin:round;">
<path d="M112477 13864
L112721 13864
" />
<path d="M112428 14011
L112599 13499
L112769 14011
" />
</g>
<g style="fill:#000000; fill-opacity:0.0; 
stroke:#000000; stroke-width:39.3701; stroke-opacity:1; 
stroke-linecap:round; stroke-linejoin:round;">
</g>
<g style="fill:#000000; fill-opacity:0.0; 
stroke:#000000; stroke-width:59.0551; stroke-opacity:1; 
stroke-linecap:round; stroke-linejoin:round;">
<path d="M112635 33428
L112708 33452
L112733 33476
L112757 33525
L112757 33598
L112733 33647
L112708 33671
L112660 33696
L112465 33696
L112465 33184
L112635 33184
L112684 33208
L112708 33233
L112733 33281
L112733 33330
L112708 33379
L112684 33403
L112635 33428
L112465 33428
" />
</g>
<g style="fill:#000000; fill-opacity:0.0; 
stroke:#000000; stroke-width:39.3701; stroke-opacity:1; 
stroke-linecap:round; stroke-linejoin:round;">
</g>
<g style="fill:#000000; fill-opacity:0.0; 
stroke:#000000; stroke-width:59.0551; stroke-opacity:1; 
stroke-linecap:round; stroke-linejoin:round;">
<path d="M112757 53332
L112733 53356
L112660 53381
L112611 53381
L112538 53356
L112489 53308
L112465 53259
L112440 53161
L112440 53088
L112465 52991
L112489 52942
L112538 52893
L112611 52869
L112660 52869
L112733 52893
L112757 52918
" />
</g>
<g style="fill:#000000; fill-opacity:0.0; 
stroke:#000000; stroke-width:39.3701; stroke-opacity:1; 
stroke-linecap:round; stroke-linejoin:round;">
</g>
<g style="fill:#000000; fill-opacity:0.0; 
stroke:#000000; stroke-width:59.0551; stroke-opacity:1; 
stroke-linecap:round; stroke-linejoin:round;">
<path d="M112465 73066
L112465 72554
L112587 72554
L112660 72578
L112708 72627
L112733 72676
L112757 72773
L112757 72846
L112733 72944
L112708 72993
L112660 73041
L112587 73066
L112465 73066
" />
</g>
<g style="fill:#000000; fill-opacity:0.0; 
stroke:#000000; stroke-width:39.3701; stroke-opacity:1; 
stroke-linecap:round; stroke-linejoin:round;">
</g>
<g style="fill:#000000; fill-opacity:0.0; 
stroke:#000000; stroke-width:59.0551; stroke-opacity:1; 
stroke-linecap:round; stroke-linejoin:round;">
<path d="M78881 76293
L78881 75703
L79022 75703
L79106 75731
L79162 75787
L79190 75843
L79219 75956
L79219 76040
L79190 76153
L79162 76209
L79106 76265
L79022 76293
L78881 76293
" />
<path d="M79725 76293
L79725 75984
L79697 75928
L79640 75899
L79528 75899
L79472 75928
" />
<path d="M79725 76265
L79669 76293
L79528 76293
L79472 76265
L79444 76209
L79444 76153
L79472 76096
L79528 76068
L79669 76068
L79725 76040
" />
<path d="M79922 75899
L80147 75899
" />
<path d="M80006 75703
L80006 76209
L80034 76265
L80090 76293
L80147 76293
" />
<path d="M80568 76265
L80512 76293
L80400 76293
L80343 76265
L80315 76209
L80315 75984
L80343 75928
L80400 75899
L80512 75899
L80568 75928
L80597 75984
L80597 76040
L80315 76096
" />
<path d="M80850 76237
L80878 76265
L80850 76293
L80822 76265
L80850 76237
L80850 76293
" />
<path d="M80850 75928
L80878 75956
L80850 75984
L80822 75956
L80850 75928
L80850 75984
" />
<path d="M81553 75759
L81581 75731
L81637 75703
L81778 75703
L81834 75731
L81862 75759
L81890 75815
L81890 75871
L81862 75956
L81525 76293
L81890 76293
" />
<path d="M82256 75703
L82312 75703
L82368 75731
L82396 75759
L82424 75815
L82453 75928
L82453 76068
L82424 76181
L82396 76237
L82368 76265
L82312 76293
L82256 76293
L82199 76265
L82171 76237
L82143 76181
L82115 76068
L82115 75928
L82143 75815
L82171 75759
L82199 75731
L82256 75703
" />
<path d="M83015 76293
L82678 76293
" />
<path d="M82846 76293
L82846 75703
L82790 75787
L82734 75843
L82678 75871
" />
<path d="M83212 75703
L83606 75703
L83352 76293
" />
<path d="M83831 76068
L84280 76068
" />
<path d="M84674 75703
L84730 75703
L84787 75731
L84815 75759
L84843 75815
L84871 75928
L84871 76068
L84843 76181
L84815 76237
L84787 76265
L84730 76293
L84674 76293
L84618 76265
L84590 76237
L84562 76181
L84534 76068
L84534 75928
L84562 75815
L84590 75759
L84618 75731
L84674 75703
" />
<path d="M85377 75899
L85377 76293
" />
<path d="M85237 75674
L85096 76096
L85462 76096
" />
<path d="M85687 76068
L86136 76068
" />
<path d="M86727 76293
L86390 76293
" />
<path d="M86558 76293
L86558 75703
L86502 75787
L86446 75843
L86390 75871
" />
<path d="M87261 75703
L86980 75703
L86952 75984
L86980 75956
L87036 75928
L87177 75928
L87233 75956
L87261 75984
L87289 76040
L87289 76181
L87261 76237
L87233 76265
L87177 76293
L87036 76293
L86980 76265
L86952 76237
" />
</g>
<g style="fill:#000000; fill-opacity:0.0; 
stroke:#000000; stroke-width:39.3701; stroke-opacity:1; 
stroke-linecap:round; stroke-linejoin:round;">
</g>
<g style="fill:#000000; fill-opacity:0.0; 
stroke:#000000; stroke-width:59.0551; stroke-opacity:1; 
stroke-linecap:round; stroke-linejoin:round;">
<path d="M69685 76577
L112205 76577
" />
</g>
<g style="fill:#000000; fill-opacity:0.0; 
stroke:#000000; stroke-width:39.3701; stroke-opacity:1; 
stroke-linecap:round; stroke-linejoin:round;">
</g>
<g style="fill:#000000; fill-opacity:0.0; 
stroke:#000000; stroke-width:59.0551; stroke-opacity:1; 
stroke-linecap:round; stroke-linejoin:round;">
<path d="M70220 77395
L70220 76805
" />
<path d="M70557 77395
L70304 77058
" />
<path d="M70557 76805
L70220 77142
" />
<path d="M70810 77395
L70810 77002
" />
<path d="M70810 76805
L70782 76833
L70810 76861
L70838 76833
L70810 76805
L70810 76861
" />
<path d="M71429 77339
L71401 77367
L71316 77395
L71260 77395
L71176 77367
L71120 77311
L71091 77255
L71063 77142
L71063 77058
L71091 76946
L71120 76889
L71176 76833
L71260 76805
L71316 76805
L71401 76833
L71429 76861
" />
<path d="M71935 77395
L71935 77086
L71907 77030
L71851 77002
L71738 77002
L71682 77030
" />
<path d="M71935 77367
L71879 77395
L71738 77395
L71682 77367
L71654 77311
L71654 77255
L71682 77199
L71738 77171
L71879 77171
L71935 77142
" />
<path d="M72469 77395
L72469 76805
" />
<path d="M72469 77367
L72413 77395
L72301 77395
L72244 77367
L72216 77339
L72188 77283
L72188 77114
L72216 77058
L72244 77030
L72301 77002
L72413 77002
L72469 77030
" />
<path d="M73201 77086
L73397 77086
" />
<path d="M73482 77395
L73201 77395
L73201 76805
L73482 76805
" />
<path d="M73735 77339
L73763 77367
L73735 77395
L73707 77367
L73735 77339
L73735 77395
" />
<path d="M74016 77395
L74016 76805
L74157 76805
L74241 76833
L74297 76889
L74325 76946
L74354 77058
L74354 77142
L74325 77255
L74297 77311
L74241 77367
L74157 77395
L74016 77395
" />
<path d="M74607 77339
L74635 77367
L74607 77395
L74579 77367
L74607 77339
L74607 77395
" />
<path d="M74860 77227
L75141 77227
" />
<path d="M74804 77395
L75000 76805
L75197 77395
" />
<path d="M75394 77339
L75422 77367
L75394 77395
L75366 77367
L75394 77339
L75394 77395
" />
<path d="M76575 77395
L76575 76805
" />
<path d="M76631 77171
L76800 77395
" />
<path d="M76800 77002
L76575 77227
" />
<path d="M77053 77395
L77053 77002
" />
<path d="M77053 76805
L77025 76833
L77053 76861
L77081 76833
L77053 76805
L77053 76861
" />
<path d="M77588 77367
L77531 77395
L77419 77395
L77363 77367
L77334 77339
L77306 77283
L77306 77114
L77334 77058
L77363 77030
L77419 77002
L77531 77002
L77588 77030
" />
<path d="M78094 77395
L78094 77086
L78066 77030
L78009 77002
L77897 77002
L77841 77030
" />
<path d="M78094 77367
L78037 77395
L77897 77395
L77841 77367
L77813 77311
L77813 77255
L77841 77199
L77897 77171
L78037 77171
L78094 77142
" />
<path d="M78628 77395
L78628 76805
" />
<path d="M78628 77367
L78572 77395
L78459 77395
L78403 77367
L78375 77339
L78347 77283
L78347 77114
L78375 77058
L78403 77030
L78459 77002
L78572 77002
L78628 77030
" />
<path d="M79612 77002
L79612 77395
" />
<path d="M79472 76777
L79331 77199
L79697 77199
" />
<path d="M79922 77339
L79950 77367
L79922 77395
L79894 77367
L79922 77339
L79922 77395
" />
<path d="M80315 76805
L80372 76805
L80428 76833
L80456 76861
L80484 76917
L80512 77030
L80512 77171
L80484 77283
L80456 77339
L80428 77367
L80372 77395
L80315 77395
L80259 77367
L80231 77339
L80203 77283
L80175 77171
L80175 77030
L80203 76917
L80231 76861
L80259 76833
L80315 76805
" />
<path d="M80765 77339
L80793 77367
L80765 77395
L80737 77367
L80765 77339
L80765 77395
" />
<path d="M81328 76805
L81046 76805
L81018 77086
L81046 77058
L81103 77030
L81243 77030
L81300 77058
L81328 77086
L81356 77142
L81356 77283
L81328 77339
L81300 77367
L81243 77395
L81103 77395
L81046 77367
L81018 77339
" />
</g>
<g style="fill:#000000; fill-opacity:0.0; 
stroke:#000000; stroke-width:39.3701; stroke-opacity:1; 
stroke-linecap:round; stroke-linejoin:round;">
</g>
<g style="fill:#000000; fill-opacity:0.0; 
stroke:#000000; stroke-width:59.0551; stroke-opacity:1; 
stroke-linecap:round; stroke-linejoin:round;">
<path d="M69685 75396
L112205 75396
" />
</g>
<g style="fill:#000000; fill-opacity:0.0; 
stroke:#000000; stroke-width:39.3701; stroke-opacity:1; 
stroke-linecap:round; stroke-linejoin:round;">
</g>
<g style="fill:#000000; fill-opacity:0.0; 
stroke:#000000; stroke-width:118.11; stroke-opacity:1; 
stroke-linecap:round; stroke-linejoin:round;">
<path d="M104022 76293
L103825 76012
" />
<path d="M103684 76293
L103684 75703
L103909 75703
L103965 75731
L103994 75759
L104022 75815
L104022 75899
L103994 75956
L103965 75984
L103909 76012
L103684 76012
" />
<path d="M104500 76265
L104444 76293
L104331 76293
L104275 76265
L104247 76209
L104247 75984
L104275 75928
L104331 75899
L104444 75899
L104500 75928
L104528 75984
L104528 76040
L104247 76096
" />
<path d="M104725 75899
L104865 76293
L105006 75899
" />
<path d="M105231 76237
L105259 76265
L105231 76293
L105203 76265
L105231 76237
L105231 76293
" />
<path d="M105231 75928
L105259 75956
L105231 75984
L105203 75956
L105231 75928
L105231 75984
" />
<path d="M105906 75899
L106046 76293
L106187 75899
" />
<path d="M106721 76293
L106384 76293
" />
<path d="M106553 76293
L106553 75703
L106496 75787
L106440 75843
L106384 75871
" />
<path d="M106974 76237
L107003 76265
L106974 76293
L106946 76265
L106974 76237
L106974 76293
" />
<path d="M107368 75703
L107424 75703
L107481 75731
L107509 75759
L107537 75815
L107565 75928
L107565 76068
L107537 76181
L107509 76237
L107481 76265
L107424 76293
L107368 76293
L107312 76265
L107284 76237
L107256 76181
L107228 76068
L107228 75928
L107256 75815
L107284 75759
L107312 75731
L107368 75703
" />
</g>
<g style="fill:#000000; fill-opacity:0.0; 
stroke:#000000; stroke-width:39.3701; stroke-opacity:1; 
stroke-linecap:round; stroke-linejoin:round;">
</g>
<g style="fill:#000000; fill-opacity:0.0; 
stroke:#000000; stroke-width:59.0551; stroke-opacity:1; 
stroke-linecap:round; stroke-linejoin:round;">
<path d="M70192 76265
L70276 76293
L70417 76293
L70473 76265
L70501 76237
L70529 76181
L70529 76124
L70501 76068
L70473 76040
L70417 76012
L70304 75984
L70248 75956
L70220 75928
L70192 75871
L70192 75815
L70220 75759
L70248 75731
L70304 75703
L70445 75703
L70529 75731
" />
<path d="M70782 76293
L70782 75899
" />
<path d="M70782 75703
L70754 75731
L70782 75759
L70810 75731
L70782 75703
L70782 75759
" />
<path d="M71007 75899
L71316 75899
L71007 76293
L71316 76293
" />
<path d="M71766 76265
L71710 76293
L71598 76293
L71541 76265
L71513 76209
L71513 75984
L71541 75928
L71598 75899
L71710 75899
L71766 75928
L71795 75984
L71795 76040
L71513 76096
" />
<path d="M72048 76237
L72076 76265
L72048 76293
L72019 76265
L72048 76237
L72048 76293
" />
<path d="M72048 75928
L72076 75956
L72048 75984
L72019 75956
L72048 75928
L72048 75984
" />
<path d="M72751 76124
L73032 76124
" />
<path d="M72694 76293
L72891 75703
L73088 76293
" />
<path d="M73538 75899
L73538 76293
" />
<path d="M73397 75674
L73257 76096
L73622 76096
" />
</g>
<g style="fill:#000000; fill-opacity:0.0; 
stroke:#000000; stroke-width:39.3701; stroke-opacity:1; 
stroke-linecap:round; stroke-linejoin:round;">
</g>
<g style="fill:#000000; fill-opacity:0.0; 
stroke:#000000; stroke-width:59.0551; stroke-opacity:1; 
stroke-linecap:round; stroke-linejoin:round;">
<path d="M103684 77395
L103684 76805
" />
<path d="M104219 77395
L104219 76805
" />
<path d="M104219 77367
L104162 77395
L104050 77395
L103994 77367
L103965 77339
L103937 77283
L103937 77114
L103965 77058
L103994 77030
L104050 77002
L104162 77002
L104219 77030
" />
<path d="M104500 77339
L104528 77367
L104500 77395
L104472 77367
L104500 77339
L104500 77395
" />
<path d="M104500 77030
L104528 77058
L104500 77086
L104472 77058
L104500 77030
L104500 77086
" />
<path d="M105540 77395
L105203 77395
" />
<path d="M105372 77395
L105372 76805
L105315 76889
L105259 76946
L105203 76974
" />
<path d="M106215 76777
L105709 77536
" />
<path d="M106721 77395
L106384 77395
" />
<path d="M106553 77395
L106553 76805
L106496 76889
L106440 76946
L106384 76974
" />
</g>
<g style="fill:#000000; fill-opacity:0.0; 
stroke:#000000; stroke-width:39.3701; stroke-opacity:1; 
stroke-linecap:round; stroke-linejoin:round;">
</g>
<g style="fill:#000000; fill-opacity:0.0; 
stroke:#000000; stroke-width:59.0551; stroke-opacity:1; 
stroke-linecap:round; stroke-linejoin:round;">
<path d="M69685 73821
L112205 73821
" />
</g>
<g style="fill:#000000; fill-opacity:0.0; 
stroke:#000000; stroke-width:39.3701; stroke-opacity:1; 
stroke-linecap:round; stroke-linejoin:round;">
</g>
<g style="fill:#000000; fill-opacity:0.0; 
stroke:#000000; stroke-width:157.48; stroke-opacity:1; 
stroke-linecap:round; stroke-linejoin:round;">
<path d="M70257 74099
L70707 74099
" />
<path d="M70384 74886
L70482 74099
" />
<path d="M70871 74886
L70937 74361
" />
<path d="M70970 74099
L70927 74136
L70960 74174
L71002 74136
L70970 74099
L70960 74174
" />
<path d="M71199 74361
L71499 74361
" />
<path d="M71345 74099
L71260 74774
L71288 74849
L71359 74886
L71434 74886
" />
<path d="M71809 74886
L71738 74849
L71710 74774
L71795 74099
" />
<path d="M72413 74849
L72334 74886
L72184 74886
L72113 74849
L72085 74774
L72123 74474
L72169 74399
L72249 74361
L72399 74361
L72469 74399
L72498 74474
L72488 74549
L72104 74624
" />
<path d="M72793 74811
L72826 74849
L72783 74886
L72751 74849
L72793 74811
L72783 74886
" />
<path d="M72844 74399
L72877 74436
L72835 74474
L72802 74436
L72844 74399
L72835 74474
" />
<path d="M73758 74886
L73857 74099
L74049 74661
L74382 74099
L74283 74886
" />
<path d="M74996 74886
L75047 74474
L75019 74399
L74949 74361
L74799 74361
L74719 74399
" />
<path d="M75000 74849
L74921 74886
L74733 74886
L74663 74849
L74635 74774
L74644 74699
L74691 74624
L74771 74586
L74958 74586
L75038 74549
" />
<path d="M75371 74886
L75436 74361
" />
<path d="M75469 74099
L75427 74136
L75460 74174
L75502 74136
L75469 74099
L75460 74174
" />
<path d="M75811 74361
L75746 74886
" />
<path d="M75802 74436
L75844 74399
L75924 74361
L76036 74361
L76106 74399
L76135 74474
L76083 74886
" />
<path d="M77058 74886
L77124 74361
" />
<path d="M77114 74436
L77156 74399
L77236 74361
L77349 74361
L77419 74399
L77447 74474
L77395 74886
" />
<path d="M77447 74474
L77494 74399
L77573 74361
L77686 74361
L77756 74399
L77784 74474
L77733 74886
" />
<path d="M78220 74886
L78150 74849
L78117 74811
L78089 74736
L78117 74511
L78164 74436
L78206 74399
L78286 74361
L78398 74361
L78469 74399
L78501 74436
L78530 74511
L78501 74736
L78455 74811
L78412 74849
L78333 74886
L78220 74886
" />
<path d="M79158 74886
L79256 74099
" />
<path d="M79162 74849
L79083 74886
L78933 74886
L78862 74849
L78830 74811
L78801 74736
L78830 74511
L78876 74436
L78919 74399
L78998 74361
L79148 74361
L79219 74399
" />
<path d="M79936 74361
L79870 74886
" />
<path d="M79598 74361
L79547 74774
L79575 74849
L79645 74886
L79758 74886
L79837 74849
L79879 74811
" />
<path d="M80358 74886
L80287 74849
L80259 74774
L80343 74099
" />
<path d="M80962 74849
L80882 74886
L80732 74886
L80662 74849
L80634 74774
L80672 74474
L80718 74399
L80798 74361
L80948 74361
L81018 74399
L81046 74474
L81037 74549
L80653 74624
" />
</g>
<g style="fill:#000000; fill-opacity:0.0; 
stroke:#000000; stroke-width:39.3701; stroke-opacity:1; 
stroke-linecap:round; stroke-linejoin:round;">
</g>
<g style="fill:#000000; fill-opacity:0.0; 
stroke:#000000; stroke-width:59.0551; stroke-opacity:1; 
stroke-linecap:round; stroke-linejoin:round;">
<path d="M70417 73070
L70220 73070
" />
<path d="M70220 73380
L70220 72789
L70501 72789
" />
<path d="M70726 73380
L70726 72986
" />
<path d="M70726 72789
L70698 72817
L70726 72845
L70754 72817
L70726 72789
L70726 72845
" />
<path d="M71091 73380
L71035 73352
L71007 73295
L71007 72789
" />
<path d="M71541 73352
L71485 73380
L71373 73380
L71316 73352
L71288 73295
L71288 73070
L71316 73014
L71373 72986
L71485 72986
L71541 73014
L71570 73070
L71570 73127
L71288 73183
" />
<path d="M71823 73323
L71851 73352
L71823 73380
L71795 73352
L71823 73323
L71823 73380
" />
<path d="M71823 73014
L71851 73042
L71823 73070
L71795 73042
L71823 73014
L71823 73070
" />
<path d="M72807 73380
L72807 72789
" />
<path d="M72807 73352
L72751 73380
L72638 73380
L72582 73352
L72554 73323
L72526 73267
L72526 73099
L72554 73042
L72582 73014
L72638 72986
L72751 72986
L72807 73014
" />
<path d="M73172 73380
L73116 73352
L73088 73323
L73060 73267
L73060 73099
L73088 73042
L73116 73014
L73172 72986
L73257 72986
L73313 73014
L73341 73042
L73369 73099
L73369 73267
L73341 73323
L73313 73352
L73257 73380
L73172 73380
" />
<path d="M73622 73380
L73622 72789
" />
<path d="M73876 73380
L73876 73070
L73847 73014
L73791 72986
L73707 72986
L73651 73014
L73622 73042
" />
<path d="M74241 73380
L74185 73352
L74157 73323
L74129 73267
L74129 73099
L74157 73042
L74185 73014
L74241 72986
L74325 72986
L74382 73014
L74410 73042
L74438 73099
L74438 73267
L74410 73323
L74382 73352
L74325 73380
L74241 73380
" />
<path d="M74691 73380
L74691 72986
" />
<path d="M74691 73042
L74719 73014
L74775 72986
L74860 72986
L74916 73014
L74944 73070
L74944 73380
" />
<path d="M74944 73070
L74972 73014
L75028 72986
L75113 72986
L75169 73014
L75197 73070
L75197 73380
" />
<path d="M75703 73352
L75647 73380
L75535 73380
L75478 73352
L75450 73295
L75450 73070
L75478 73014
L75535 72986
L75647 72986
L75703 73014
L75732 73070
L75732 73127
L75450 73183
" />
<path d="M75844 73436
L76294 73436
" />
<path d="M76406 73352
L76463 73380
L76575 73380
L76631 73352
L76660 73295
L76660 73267
L76631 73211
L76575 73183
L76491 73183
L76435 73155
L76406 73099
L76406 73070
L76435 73014
L76491 72986
L76575 72986
L76631 73014
" />
<path d="M76856 72986
L76969 73380
L77081 73099
L77194 73380
L77306 72986
" />
<path d="M77531 73380
L77531 72986
" />
<path d="M77531 72789
L77503 72817
L77531 72845
L77559 72817
L77531 72789
L77531 72845
" />
<path d="M77728 72986
L77953 72986
" />
<path d="M77813 72789
L77813 73295
L77841 73352
L77897 73380
L77953 73380
" />
<path d="M78403 73352
L78347 73380
L78234 73380
L78178 73352
L78150 73323
L78122 73267
L78122 73099
L78150 73042
L78178 73014
L78234 72986
L78347 72986
L78403 73014
" />
<path d="M78656 73380
L78656 72789
" />
<path d="M78909 73380
L78909 73070
L78881 73014
L78825 72986
L78741 72986
L78684 73014
L78656 73042
" />
<path d="M79190 73323
L79219 73352
L79190 73380
L79162 73352
L79190 73323
L79190 73380
" />
<path d="M79472 73380
L79472 72789
" />
<path d="M79528 73155
L79697 73380
" />
<path d="M79697 72986
L79472 73211
" />
<path d="M79950 73380
L79950 72986
" />
<path d="M79950 72789
L79922 72817
L79950 72845
L79978 72817
L79950 72789
L79950 72845
" />
<path d="M80484 73352
L80428 73380
L80315 73380
L80259 73352
L80231 73323
L80203 73267
L80203 73099
L80231 73042
L80259 73014
L80315 72986
L80428 72986
L80484 73014
" />
<path d="M80990 73380
L80990 73070
L80962 73014
L80906 72986
L80793 72986
L80737 73014
" />
<path d="M80990 73352
L80934 73380
L80793 73380
L80737 73352
L80709 73295
L80709 73239
L80737 73183
L80793 73155
L80934 73155
L80990 73127
" />
<path d="M81525 73380
L81525 72789
" />
<path d="M81525 73352
L81468 73380
L81356 73380
L81300 73352
L81271 73323
L81243 73267
L81243 73099
L81271 73042
L81300 73014
L81356 72986
L81468 72986
L81525 73014
" />
<path d="M81665 73436
L82115 73436
" />
<path d="M82256 72986
L82256 73577
" />
<path d="M82256 73014
L82312 72986
L82424 72986
L82481 73014
L82509 73042
L82537 73099
L82537 73267
L82509 73323
L82481 73352
L82424 73380
L82312 73380
L82256 73352
" />
<path d="M83043 73352
L82987 73380
L82874 73380
L82818 73352
L82790 73323
L82762 73267
L82762 73099
L82790 73042
L82818 73014
L82874 72986
L82987 72986
L83043 73014
" />
<path d="M83296 73380
L83296 72789
" />
<path d="M83296 73014
L83352 72986
L83465 72986
L83521 73014
L83549 73042
L83577 73099
L83577 73267
L83549 73323
L83521 73352
L83465 73380
L83352 73380
L83296 73352
" />
</g>
<g style="fill:#000000; fill-opacity:0.0; 
stroke:#000000; stroke-width:39.3701; stroke-opacity:1; 
stroke-linecap:round; stroke-linejoin:round;">
</g>
<g style="fill:#000000; fill-opacity:0.0; 
stroke:#000000; stroke-width:59.0551; stroke-opacity:1; 
stroke-linecap:round; stroke-linejoin:round;">
<path d="M69685 71459
L112205 71459
" />
</g>
<g style="fill:#000000; fill-opacity:0.0; 
stroke:#000000; stroke-width:39.3701; stroke-opacity:1; 
stroke-linecap:round; stroke-linejoin:round;">
</g>
<g style="fill:#000000; fill-opacity:0.0; 
stroke:#000000; stroke-width:59.0551; stroke-opacity:1; 
stroke-linecap:round; stroke-linejoin:round;">
<path d="M70192 72289
L70276 72317
L70417 72317
L70473 72289
L70501 72260
L70529 72204
L70529 72148
L70501 72092
L70473 72064
L70417 72036
L70304 72007
L70248 71979
L70220 71951
L70192 71895
L70192 71839
L70220 71782
L70248 71754
L70304 71726
L70445 71726
L70529 71754
" />
<path d="M70782 72317
L70782 71726
" />
<path d="M71035 72317
L71035 72007
L71007 71951
L70951 71923
L70867 71923
L70810 71951
L70782 71979
" />
<path d="M71541 72289
L71485 72317
L71373 72317
L71316 72289
L71288 72232
L71288 72007
L71316 71951
L71373 71923
L71485 71923
L71541 71951
L71570 72007
L71570 72064
L71288 72120
" />
<path d="M72048 72289
L71991 72317
L71879 72317
L71823 72289
L71795 72232
L71795 72007
L71823 71951
L71879 71923
L71991 71923
L72048 71951
L72076 72007
L72076 72064
L71795 72120
" />
<path d="M72244 71923
L72469 71923
" />
<path d="M72329 71726
L72329 72232
L72357 72289
L72413 72317
L72469 72317
" />
<path d="M72666 72260
L72694 72289
L72666 72317
L72638 72289
L72666 72260
L72666 72317
" />
<path d="M72666 71951
L72694 71979
L72666 72007
L72638 71979
L72666 71951
L72666 72007
" />
</g>
<g style="fill:#000000; fill-opacity:0.0; 
stroke:#000000; stroke-width:39.3701; stroke-opacity:1; 
stroke-linecap:round; stroke-linejoin:round;">
</g>
<g style="fill:#000000; fill-opacity:0.0; 
stroke:#000000; stroke-width:118.11; stroke-opacity:1; 
stroke-linecap:round; stroke-linejoin:round;">
<path d="M70220 71136
L70220 70545
L70360 70545
L70445 70573
L70501 70629
L70529 70686
L70557 70798
L70557 70883
L70529 70995
L70501 71051
L70445 71108
L70360 71136
L70220 71136
" />
<path d="M70895 71136
L70838 71108
L70810 71079
L70782 71023
L70782 70854
L70810 70798
L70838 70770
L70895 70742
L70979 70742
L71035 70770
L71063 70798
L71091 70854
L71091 71023
L71063 71079
L71035 71108
L70979 71136
L70895 71136
" />
<path d="M71345 71136
L71345 70545
" />
<path d="M71345 70826
L71682 70826
" />
<path d="M71682 71136
L71682 70545
" />
<path d="M72048 71136
L71991 71108
L71963 71079
L71935 71023
L71935 70854
L71963 70798
L71991 70770
L72048 70742
L72132 70742
L72188 70770
L72216 70798
L72244 70854
L72244 71023
L72216 71079
L72188 71108
L72132 71136
L72048 71136
" />
<path d="M72498 71136
L72498 70742
" />
<path d="M72498 70798
L72526 70770
L72582 70742
L72666 70742
L72723 70770
L72751 70826
L72751 71136
" />
<path d="M72751 70826
L72779 70770
L72835 70742
L72919 70742
L72976 70770
L73004 70826
L73004 71136
" />
<path d="M73510 71108
L73454 71136
L73341 71136
L73285 71108
L73257 71051
L73257 70826
L73285 70770
L73341 70742
L73454 70742
L73510 70770
L73538 70826
L73538 70883
L73257 70939
" />
</g>
<g style="fill:#000000; fill-opacity:0.0; 
stroke:#000000; stroke-width:39.3701; stroke-opacity:1; 
stroke-linecap:round; stroke-linejoin:round;">
</g>
<g style="fill:#000000; fill-opacity:0.0; 
stroke:#000000; stroke-width:59.0551; stroke-opacity:1; 
stroke-linecap:round; stroke-linejoin:round;">
<path d="M77559 75396
L77559 76577
" />
</g>
<g style="fill:#000000; fill-opacity:0.0; 
stroke:#000000; stroke-width:39.3701; stroke-opacity:1; 
stroke-linecap:round; stroke-linejoin:round;">
</g>
<g style="fill:#000000; fill-opacity:0.0; 
stroke:#000000; stroke-width:59.0551; stroke-opacity:1; 
stroke-linecap:round; stroke-linejoin:round;">
<path d="M102756 75396
L102756 77955
" />
</g>
<g style="fill:#840000; fill-opacity:0.0; 
stroke:#840000; stroke-width:59.0551; stroke-opacity:1; 
stroke-linecap:round; stroke-linejoin:round;">
</g>
<g style="fill:#840000; fill-opacity:0.0; 
stroke:#840000; stroke-width:0; stroke-opacity:1; 
stroke-linecap:round; stroke-linejoin:round;">
</g>
<g style="fill:#840000; fill-opacity:1.0; 
stroke:#840000; stroke-width:0; stroke-opacity:1; 
stroke-linecap:round; stroke-linejoin:round;">
<polyline style="fill-rule:evenodd;"
points="42058,39857
42491,39857
42491,40841
42058,40841
42058,39857
" /> 
</g>
<g style="fill:#840000; fill-opacity:1.0; 
stroke:#840000; stroke-width:433.071; stroke-opacity:1; 
stroke-linecap:round; stroke-linejoin:round;">
</g>
<g style="fill:#840000; fill-opacity:0.0; 
stroke:#840000; stroke-width:433.071; stroke-opacity:1; 
stroke-linecap:round; stroke-linejoin:round;">
<path d="M41487 40073
L41487 40625
" />
<path d="M40700 40073
L40700 40625
" />
<path d="M39912 40073
L39912 40625
" />
<path d="M39125 40073
L39125 40625
" />
<path d="M38337 40073
L38337 40625
" />
<path d="M37550 40073
L37550 40625
" />
<path d="M36763 40073
L36763 40625
" />
<path d="M36763 46136
L36763 46687
" />
<path d="M37550 46097
L37550 46648
" />
<path d="M38337 46136
L38337 46687
" />
<path d="M39125 46136
L39125 46687
" />
<path d="M39912 46136
L39912 46687
" />
<path d="M40700 46136
L40700 46687
" />
<path d="M41487 46136
L41487 46687
" />
<path d="M42275 46136
L42275 46687
" />
<path d="M35818 42983
L36369 42983
" />
<path d="M35818 43770
L36369 43770
" />
</g>
<g style="fill:#840000; fill-opacity:0.0; 
stroke:#840000; stroke-width:0; stroke-opacity:1; 
stroke-linecap:round; stroke-linejoin:round;">
</g>
<g style="fill:#840000; fill-opacity:1.0; 
stroke:#840000; stroke-width:0; stroke-opacity:1; 
stroke-linecap:round; stroke-linejoin:round;">
<polyline style="fill-rule:evenodd;"
points="34744,47697
34744,47303
35334,47303
35334,47697
34744,47697
" /> 
<polyline style="fill-rule:evenodd;"
points="32815,47697
32815,47303
33405,47303
33405,47697
32815,47697
" /> 
<polyline style="fill-rule:evenodd;"
points="32815,48996
32815,48602
33405,48602
33405,48996
32815,48996
" /> 
<polyline style="fill-rule:evenodd;"
points="34744,48996
34744,48602
35334,48602
35334,48996
34744,48996
" /> 
<polyline style="fill-rule:evenodd;"
points="31978,47362
32471,47362
32471,47953
31978,47953
31978,47362
" /> 
<polyline style="fill-rule:evenodd;"
points="31978,48346
32471,48346
32471,48937
31978,48937
31978,48346
" /> 
<polyline style="fill-rule:evenodd;"
points="33934,46065
33934,46734
33265,46734
33265,46065
33934,46065
" /> 
</g>
<g style="fill:#840000; fill-opacity:1.0; 
stroke:#840000; stroke-width:669.291; stroke-opacity:1; 
stroke-linecap:round; stroke-linejoin:round;">
</g>
<g style="fill:#840000; fill-opacity:0.0; 
stroke:#840000; stroke-width:669.291; stroke-opacity:1; 
stroke-linecap:round; stroke-linejoin:round;">
<path d="M32600 46400
L32600 46400
" />
<path d="M33600 45400
L33600 45400
" />
<path d="M32600 45400
L32600 45400
" />
<path d="M33600 44400
L33600 44400
" />
<path d="M32600 44400
L32600 44400
" />
<path d="M33600 43400
L33600 43400
" />
<path d="M32600 43400
L32600 43400
" />
<path d="M33600 42400
L33600 42400
" />
<path d="M32600 42400
L32600 42400
" />
<path d="M33600 41400
L33600 41400
" />
<path d="M32600 41400
L32600 41400
" />
<path d="M33600 40400
L33600 40400
" />
<path d="M32600 40400
L32600 40400
" />
</g>
<g style="fill:#840000; fill-opacity:0.0; 
stroke:#840000; stroke-width:0; stroke-opacity:1; 
stroke-linecap:round; stroke-linejoin:round;">
</g>
<g style="fill:#840000; fill-opacity:1.0; 
stroke:#840000; stroke-width:0; stroke-opacity:1; 
stroke-linecap:round; stroke-linejoin:round;">
<polyline style="fill-rule:evenodd;"
points="38434,48384
37765,48384
37765,47715
38434,47715
38434,48384
" /> 
</g>
<g style="fill:#840000; fill-opacity:1.0; 
stroke:#840000; stroke-width:669.291; stroke-opacity:1; 
stroke-linecap:round; stroke-linejoin:round;">
</g>
<g style="fill:#840000; fill-opacity:0.0; 
stroke:#840000; stroke-width:669.291; stroke-opacity:1; 
stroke-linecap:round; stroke-linejoin:round;">
<path d="M39100 48050
L39100 48050
" />
<path d="M40100 48050
L40100 48050
" />
<path d="M41100 48050
L41100 48050
" />
<path d="M42100 48050
L42100 48050
" />
<path d="M43100 48050
L43100 48050
" />
</g>
<g style="fill:#840000; fill-opacity:0.0; 
stroke:#840000; stroke-width:0; stroke-opacity:1; 
stroke-linecap:round; stroke-linejoin:round;">
</g>
<g style="fill:#840000; fill-opacity:1.0; 
stroke:#840000; stroke-width:0; stroke-opacity:1; 
stroke-linecap:round; stroke-linejoin:round;">
<polyline style="fill-rule:evenodd;"
points="35484,41090
35484,41759
34815,41759
34815,41090
35484,41090
" /> 
</g>
<g style="fill:#840000; fill-opacity:1.0; 
stroke:#840000; stroke-width:669.291; stroke-opacity:1; 
stroke-linecap:round; stroke-linejoin:round;">
</g>
<g style="fill:#840000; fill-opacity:0.0; 
stroke:#840000; stroke-width:669.291; stroke-opacity:1; 
stroke-linecap:round; stroke-linejoin:round;">
<path d="M35150 40425
L35150 40425
" />
</g>
<g style="fill:#C2C2C2; fill-opacity:0.0; 
stroke:#C2C2C2; stroke-width:669.291; stroke-opacity:1; 
stroke-linecap:round; stroke-linejoin:round;">
</g>
<g style="fill:#C2C2C2; fill-opacity:1.0; 
stroke:#C2C2C2; stroke-width:0; stroke-opacity:1; 
stroke-linecap:round; stroke-linejoin:round;">
<circle cx="43100" cy="43175" r="118.11" /> 
</g>
<g style="fill:#C2C2C2; fill-opacity:1.0; 
stroke:#C2C2C2; stroke-width:39.3701; stroke-opacity:1; 
stroke-linecap:round; stroke-linejoin:round;">
</g>
<g style="fill:#C2C2C2; fill-opacity:1.0; 
stroke:#C2C2C2; stroke-width:0; stroke-opacity:1; 
stroke-linecap:round; stroke-linejoin:round;">
<circle cx="39500" cy="45900" r="118.11" /> 
</g>
<g style="fill:#C2C2C2; fill-opacity:1.0; 
stroke:#C2C2C2; stroke-width:39.3701; stroke-opacity:1; 
stroke-linecap:round; stroke-linejoin:round;">
</g>
<g style="fill:#C2C2C2; fill-opacity:1.0; 
stroke:#C2C2C2; stroke-width:0; stroke-opacity:1; 
stroke-linecap:round; stroke-linejoin:round;">
<circle cx="37069.1" cy="40930.9" r="118.11" /> 
</g>
<g style="fill:#C2C2C2; fill-opacity:1.0; 
stroke:#C2C2C2; stroke-width:39.3701; stroke-opacity:1; 
stroke-linecap:round; stroke-linejoin:round;">
</g>
<g style="fill:#C2C2C2; fill-opacity:1.0; 
stroke:#C2C2C2; stroke-width:0; stroke-opacity:1; 
stroke-linecap:round; stroke-linejoin:round;">
<circle cx="41456.5" cy="41050" r="118.11" /> 
</g>
<g style="fill:#C2C2C2; fill-opacity:1.0; 
stroke:#C2C2C2; stroke-width:39.3701; stroke-opacity:1; 
stroke-linecap:round; stroke-linejoin:round;">
</g>
<g style="fill:#C2C2C2; fill-opacity:1.0; 
stroke:#C2C2C2; stroke-width:0; stroke-opacity:1; 
stroke-linecap:round; stroke-linejoin:round;">
<circle cx="40412.6" cy="40912.6" r="118.11" /> 
</g>
<g style="fill:#C2C2C2; fill-opacity:1.0; 
stroke:#C2C2C2; stroke-width:39.3701; stroke-opacity:1; 
stroke-linecap:round; stroke-linejoin:round;">
</g>
<g style="fill:#C2C2C2; fill-opacity:1.0; 
stroke:#C2C2C2; stroke-width:0; stroke-opacity:1; 
stroke-linecap:round; stroke-linejoin:round;">
<circle cx="38750" cy="45306.5" r="118.11" /> 
</g>
<g style="fill:#C2C2C2; fill-opacity:1.0; 
stroke:#C2C2C2; stroke-width:39.3701; stroke-opacity:1; 
stroke-linecap:round; stroke-linejoin:round;">
</g>
<g style="fill:#C2C2C2; fill-opacity:1.0; 
stroke:#C2C2C2; stroke-width:0; stroke-opacity:1; 
stroke-linecap:round; stroke-linejoin:round;">
<circle cx="35025" cy="47000" r="118.11" /> 
</g>
<g style="fill:#C2C2C2; fill-opacity:1.0; 
stroke:#C2C2C2; stroke-width:39.3701; stroke-opacity:1; 
stroke-linecap:round; stroke-linejoin:round;">
</g>
<g style="fill:#C2C2C2; fill-opacity:1.0; 
stroke:#C2C2C2; stroke-width:0; stroke-opacity:1; 
stroke-linecap:round; stroke-linejoin:round;">
<circle cx="36800" cy="42975" r="118.11" /> 
</g>
<g style="fill:#C2C2C2; fill-opacity:1.0; 
stroke:#C2C2C2; stroke-width:39.3701; stroke-opacity:1; 
stroke-linecap:round; stroke-linejoin:round;">
</g>
<g style="fill:#C2C2C2; fill-opacity:1.0; 
stroke:#C2C2C2; stroke-width:0; stroke-opacity:1; 
stroke-linecap:round; stroke-linejoin:round;">
<circle cx="39450" cy="43375" r="118.11" /> 
</g>
<g style="fill:#C2C2C2; fill-opacity:1.0; 
stroke:#C2C2C2; stroke-width:39.3701; stroke-opacity:1; 
stroke-linecap:round; stroke-linejoin:round;">
</g>
<g style="fill:#C2C2C2; fill-opacity:1.0; 
stroke:#C2C2C2; stroke-width:0; stroke-opacity:1; 
stroke-linecap:round; stroke-linejoin:round;">
<circle cx="41875" cy="45400" r="118.11" /> 
</g>
<g style="fill:#C2C2C2; fill-opacity:1.0; 
stroke:#C2C2C2; stroke-width:39.3701; stroke-opacity:1; 
stroke-linecap:round; stroke-linejoin:round;">
</g>
<g style="fill:#C2C2C2; fill-opacity:1.0; 
stroke:#C2C2C2; stroke-width:0; stroke-opacity:1; 
stroke-linecap:round; stroke-linejoin:round;">
<circle cx="41875" cy="44975" r="118.11" /> 
</g>
<g style="fill:#C2C2C2; fill-opacity:1.0; 
stroke:#C2C2C2; stroke-width:39.3701; stroke-opacity:1; 
stroke-linecap:round; stroke-linejoin:round;">
</g>
<g style="fill:#C2C2C2; fill-opacity:1.0; 
stroke:#C2C2C2; stroke-width:0; stroke-opacity:1; 
stroke-linecap:round; stroke-linejoin:round;">
<circle cx="41900" cy="44425" r="118.11" /> 
</g>
<g style="fill:#C2C2C2; fill-opacity:1.0; 
stroke:#C2C2C2; stroke-width:39.3701; stroke-opacity:1; 
stroke-linecap:round; stroke-linejoin:round;">
</g>
<g style="fill:#840000; fill-opacity:1.0; 
stroke:#840000; stroke-width:39.3701; stroke-opacity:1; 
stroke-linecap:round; stroke-linejoin:round;">
</g>
<g style="fill:#840000; fill-opacity:1.0; 
stroke:#840000; stroke-width:98.4252; stroke-opacity:1; 
stroke-linecap:round; stroke-linejoin:round;">
</g>
<g style="fill:#840000; fill-opacity:0.0; 
stroke:#840000; stroke-width:98.4252; stroke-opacity:1; 
stroke-linecap:round; stroke-linejoin:round;">
<path d="M43100 43175
L43100 48050
" />
<path d="M43100 43175
L43100 41450
" />
<path d="M43100 41450
L42275 40625
" />
<path d="M39125 46136
L39263 46136
" />
<path d="M39263 46136
L39500 45900
" />
<path d="M39125 46136
L39213 46136
" />
<path d="M39100 48050
L39100 46162
" />
<path d="M39100 46162
L39125 46136
" />
<path d="M32600 45400
L32625 45400
" />
<path d="M32625 45400
L33125 44900
" />
<path d="M39125 45000
L39125 46136
" />
<path d="M38750 44625
L39125 45000
" />
<path d="M34175 44625
L38750 44625
" />
<path d="M33900 44900
L34175 44625
" />
<path d="M33125 44900
L33900 44900
" />
<path d="M32600 45400
L32600 45425
" />
<path d="M37069 40930
L36763 40625
" />
<path d="M33600 40400
L34075 40400
" />
<path d="M36463 40925
L36763 40625
" />
<path d="M34600 40925
L36463 40925
" />
<path d="M34075 40400
L34600 40925
" />
<path d="M41487 40625
L41487 41018
" />
<path d="M41487 41018
L41456 41050
" />
<path d="M40412 40912
L40700 40625
" />
<path d="M33600 42400
L34000 42400
" />
<path d="M39912 41912
L39912 40625
" />
<path d="M39225 42600
L39912 41912
" />
<path d="M34200 42600
L39225 42600
" />
<path d="M34000 42400
L34200 42600
" />
<path d="M32600 42400
L32625 42400
" />
<path d="M32625 42400
L33125 41900
" />
<path d="M39125 41949
L39125 40625
" />
<path d="M38652 42422
L39125 41949
" />
<path d="M34372 42422
L38652 42422
" />
<path d="M33850 41900
L34372 42422
" />
<path d="M33125 41900
L33850 41900
" />
<path d="M33600 41400
L33650 41400
" />
<path d="M33650 41400
L34495 42245
" />
<path d="M38337 41937
L38337 40625
" />
<path d="M38029 42245
L38337 41937
" />
<path d="M34495 42245
L38029 42245
" />
<path d="M33600 41400
L33925 41400
" />
<path d="M32600 41400
L33100 40900
" />
<path d="M37550 41924
L37550 40625
" />
<path d="M37406 42068
L37550 41924
" />
<path d="M34768 42068
L37406 42068
" />
<path d="M34475 41775
L34768 42068
" />
<path d="M34475 41350
L34475 41775
" />
<path d="M34025 40900
L34475 41350
" />
<path d="M33100 40900
L34025 40900
" />
<path d="M32600 46400
L33100 45900
" />
<path d="M37550 45575
L37550 46136
" />
<path d="M37050 45075
L37550 45575
" />
<path d="M34900 45075
L37050 45075
" />
<path d="M34075 45900
L34900 45075
" />
<path d="M33100 45900
L34075 45900
" />
<path d="M38337 46136
L38337 45718
" />
<path d="M38337 45718
L38750 45306
" />
<path d="M33600 45400
L33725 45400
" />
<path d="M33725 45400
L34275 44850
" />
<path d="M38337 45287
L38337 46136
" />
<path d="M37900 44850
L38337 45287
" />
<path d="M34275 44850
L37900 44850
" />
<path d="M33600 45400
L33625 45400
" />
<path d="M33600 44400
L39500 44400
" />
<path d="M39925 44825
L39925 46124
" />
<path d="M39500 44400
L39925 44825
" />
<path d="M39925 46124
L39912 46136
" />
<path d="M39925 46124
L39912 46136
" />
<path d="M32600 44400
L33100 43900
" />
<path d="M40700 44825
L40700 46136
" />
<path d="M40025 44150
L40700 44825
" />
<path d="M34075 44150
L40025 44150
" />
<path d="M33825 43900
L34075 44150
" />
<path d="M33100 43900
L33825 43900
" />
<path d="M32600 44400
L32650 44400
" />
<path d="M41487 46136
L41487 46662
" />
<path d="M41487 46662
L40100 48050
" />
<path d="M42275 46136
L42275 46875
" />
<path d="M42275 46875
L41100 48050
" />
<path d="M36369 42983
L36791 42983
" />
<path d="M35039 47014
L35039 47500
" />
<path d="M35025 47000
L35039 47014
" />
<path d="M36791 42983
L36800 42975
" />
<path d="M36369 43770
L33970 43770
" />
<path d="M33970 43770
L33600 43400
" />
<path d="M32600 43400
L33100 42900
" />
<path d="M34500 43375
L39450 43375
" />
<path d="M34025 42900
L34500 43375
" />
<path d="M33100 42900
L34025 42900
" />
<path d="M42800 45400
L41875 45400
" />
<path d="M42450 44975
L41875 44975
" />
<path d="M42100 48050
L42100 47750
" />
<path d="M42100 47750
L42800 47050
" />
<path d="M42800 47050
L42800 45400
" />
<path d="M42800 45400
L42800 45325
" />
<path d="M42800 45325
L42450 44975
" />
<path d="M42450 44975
L42225 44750
" />
<path d="M42225 44750
L41900 44425
" />
<path d="M33600 46400
L36500 46400
" />
<path d="M36500 46400
L36763 46136
" />
<path d="M33600 46400
L33600 46125
" />
<path d="M32225 48642
L32257 48642
" />
<path d="M32257 48642
L32700 48200
" />
<path d="M32700 48200
L34439 48200
" />
<path d="M34439 48200
L35039 48799
" />
<path d="M38100 48050
L34750 48050
" />
<path d="M34200 47500
L33110 47500
" />
<path d="M34750 48050
L34200 47500
" />
<path d="M32225 47657
L32952 47657
" />
<path d="M32952 47657
L33110 47500
" />
<path d="M35150 40425
L34725 40425
" />
<path d="M33100 39900
L32600 40400
" />
<path d="M34200 39900
L33100 39900
" />
<path d="M34725 40425
L34200 39900
" />
</g>
<g style="fill:#840000; fill-opacity:1.0; 
stroke:#840000; stroke-width:100; stroke-opacity:1; 
stroke-linecap:round; stroke-linejoin:round;">
<polyline style="fill-rule:evenodd;"
points="44400,49200
35484,49200
35546,49138
35584,49046
35584,48912
35522,48849
35089,48849
35089,48857
34989,48857
34989,48849
34556,48849
34494,48912
34494,49046
34532,49138
34594,49200
33551,49200
33583,49179
33640,49095
33660,48996
33660,48602
33651,48553
34494,48553
34494,48687
34556,48749
34989,48749
34989,48415
35089,48415
35089,48749
35522,48749
35584,48687
35584,48553
35546,48461
35476,48390
35384,48352
35152,48352
35089,48415
34989,48415
34927,48352
34694,48352
34602,48390
34532,48461
34494,48553
33651,48553
33643,48510
33588,48425
33504,48367
33405,48347
32815,48347
32722,48365
32721,48366
32721,48297
32683,48205
32627,48149
32648,48135
32705,48052
32725,47957
32952,47957
32977,47952
33405,47952
33498,47934
33583,47879
33638,47799
34076,47799
34538,48261
34635,48326
34750,48349
37510,48349
37510,48384
37527,48477
37582,48562
37666,48619
37765,48639
38434,48639
38527,48622
38612,48567
38669,48483
38674,48457
38686,48474
38876,48601
39100,48646
39323,48601
39513,48474
39600,48345
39686,48474
39876,48601
40100,48646
40323,48601
40513,48474
40600,48345
40686,48474
40876,48601
41100,48646
41323,48601
41513,48474
41603,48340
41629,48396
41798,48550
41959,48617
42050,48569
42050,48100
42042,48100
42042,48000
42050,48000
42050,47992
42150,47992
42150,48000
42157,48000
42157,48100
42150,48100
42150,48569
42240,48617
42401,48550
42570,48396
42596,48340
42686,48474
42876,48601
43100,48646
43323,48601
43513,48474
43640,48285
43684,48061
43684,48038
43640,47814
43513,47625
43399,47548
43399,47350
44400,47350
44400,49200
" /> 
<polyline style="fill-rule:evenodd;"
points="43225,41151
42746,40673
42746,39857
42729,39764
42674,39679
42590,39622
42491,39602
42058,39602
41965,39619
41880,39674
41830,39748
41817,39729
41666,39628
41487,39592
41309,39628
41157,39729
41093,39824
41030,39729
40878,39628
40700,39592
40521,39628
40370,39729
40306,39824
40242,39729
40091,39628
39912,39592
39734,39628
39582,39729
39519,39824
39455,39729
39303,39628
39125,39592
38946,39628
38795,39729
38731,39824
38667,39729
38516,39628
38337,39592
38159,39628
38008,39729
37944,39824
37880,39729
37729,39628
37550,39592
37372,39628
37220,39729
37156,39824
37093,39729
36941,39628
36763,39592
36584,39628
36433,39729
36332,39880
36296,40059
36296,40625
35706,40625
35746,40425
35701,40201
35574,40011
35385,39884
35161,39840
35138,39840
34914,39884
34730,40007
34411,39688
34314,39623
34200,39600
33100,39600
32985,39623
32888,39688
32736,39840
32611,39815
32588,39815
32364,39859
32175,39986
32048,40176
32003,40400
32048,40623
32175,40813
32304,40900
32175,40986
32048,41176
32003,41400
32048,41623
32175,41813
32304,41900
32175,41986
32048,42176
32003,42400
32048,42623
32175,42813
32304,42900
32175,42986
32048,43176
32003,43400
32048,43623
32175,43813
32304,43900
32175,43986
32048,44176
32003,44400
32048,44623
32175,44813
32304,44900
32175,44986
32048,45176
32003,45400
32048,45623
32175,45813
32304,45900
32175,45986
32048,46176
32003,46400
32048,46623
32175,46813
32364,46940
32588,46984
32611,46984
32835,46940
33024,46813
33026,46811
33053,46876
33123,46946
33215,46984
33487,46984
33550,46922
33550,46450
33650,46450
33650,46922
33712,46984
33984,46984
34076,46946
34146,46876
34184,46784
34184,46512
34134,46462
36296,46462
36296,46737
36351,46912
36468,47053
36630,47138
36641,47138
36713,47088
36713,46462
36296,46462
34134,46462
34122,46450
33650,46450
33550,46450
33542,46450
33542,46350
33550,46350
33550,46342
33650,46342
33650,46350
34122,46350
34184,46287
34184,46177
34189,46176
34286,46111
34311,46086
36296,46086
36296,46362
36713,46362
36713,45735
36641,45686
36630,45686
36468,45771
36351,45912
36296,46086
34311,46086
35023,45374
36926,45374
37251,45699
37251,45732
37220,45753
37141,45871
37057,45771
36895,45686
36885,45686
36813,45735
36813,46362
36821,46362
36821,46462
36813,46462
36813,47088
36885,47138
36895,47138
37057,47053
37170,46918
37220,46993
37372,47094
37550,47129
37729,47094
37880,46993
37931,46917
38008,47032
38159,47133
38337,47169
38516,47133
38667,47032
38731,46936
38795,47032
38800,47035
38800,47548
38686,47625
38675,47641
38672,47622
38617,47537
38533,47480
38434,47460
37765,47460
37672,47477
37587,47532
37530,47616
37510,47715
37510,47750
35578,47750
35589,47697
35589,47303
35572,47210
35517,47125
35434,47068
35393,47060
35393,46927
35337,46791
35233,46688
35098,46631
34952,46631
34816,46687
34713,46791
34656,46926
34656,47065
34651,47066
34566,47120
34509,47204
34489,47303
34489,47366
34411,47288
34314,47223
34200,47201
33636,47201
33588,47125
33504,47068
33405,47048
32815,47048
32722,47066
32637,47120
32612,47156
32570,47127
32471,47107
31978,47107
31886,47125
31801,47179
31744,47263
31724,47362
31724,47953
31741,48045
31796,48130
31823,48149
31766,48205
31728,48297
31728,48529
31791,48592
32175,48592
32175,48584
32275,48584
32275,48592
32282,48592
32282,48692
32275,48692
32275,49124
32337,49187
32520,49187
32612,49149
32614,49147
32632,49174
32670,49200
31675,49200
31675,48754
31728,48754
31728,48987
31766,49079
31837,49149
31929,49187
32112,49187
32175,49124
32175,48692
31791,48692
31728,48754
31675,48754
31675,39500
43225,39500
43225,41151
" /> 
<polyline style="fill-rule:evenodd;"
points="41116,40908
41088,40976
41088,41122
41144,41258
41247,41361
41382,41418
41529,41418
41664,41362
41768,41258
41824,41123
41824,40977
41819,40965
41830,40949
41875,41019
41959,41076
42058,41096
42323,41096
42800,41573
42800,42953
42788,42966
42731,43101
42731,43247
42787,43383
42800,43396
42800,47548
42686,47625
42596,47759
42570,47703
42401,47549
42240,47482
42150,47530
42150,47465
42107,47465
42436,47137
42453,47133
42604,47032
42706,46881
42741,46702
42741,46122
42706,45943
42604,45792
42453,45691
42275,45655
42096,45691
41945,45792
41881,45887
41817,45792
41666,45691
41487,45655
41309,45691
41157,45792
41093,45887
41030,45792
40999,45771
40999,44825
40976,44710
40976,44710
40911,44613
40236,43938
40139,43873
40025,43850
36834,43850
36850,43770
36831,43674
39228,43674
39241,43686
39376,43743
39522,43743
39658,43687
39761,43583
39818,43448
39818,43302
39762,43166
39658,43063
39523,43006
39377,43006
39241,43062
39228,43075
37156,43075
37168,43048
37168,42902
37166,42899
39225,42899
39339,42876
39436,42811
40124,42123
40189,42026
40212,41912
40212,41227
40339,41280
40485,41280
40620,41224
40724,41121
40733,41099
40878,41070
41030,40969
41093,40873
41116,40908
" /> 
</g>
<g style="fill:#FFFFFF; fill-opacity:1.0; 
stroke:#FFFFFF; stroke-width:100; stroke-opacity:1; 
stroke-linecap:round; stroke-linejoin:round;">
</g>
<g style="fill:#FFFFFF; fill-opacity:1.0; 
stroke:#FFFFFF; stroke-width:0; stroke-opacity:1; 
stroke-linecap:round; stroke-linejoin:round;">
<circle cx="43100" cy="43175" r="78.7402" /> 
</g>
<g style="fill:#FFFFFF; fill-opacity:1.0; 
stroke:#FFFFFF; stroke-width:39.3701; stroke-opacity:1; 
stroke-linecap:round; stroke-linejoin:round;">
</g>
<g style="fill:#FFFFFF; fill-opacity:1.0; 
stroke:#FFFFFF; stroke-width:0; stroke-opacity:1; 
stroke-linecap:round; stroke-linejoin:round;">
<circle cx="39500" cy="45900" r="78.7402" /> 
</g>
<g style="fill:#FFFFFF; fill-opacity:1.0; 
stroke:#FFFFFF; stroke-width:39.3701; stroke-opacity:1; 
stroke-linecap:round; stroke-linejoin:round;">
</g>
<g style="fill:#FFFFFF; fill-opacity:1.0; 
stroke:#FFFFFF; stroke-width:0; stroke-opacity:1; 
stroke-linecap:round; stroke-linejoin:round;">
<circle cx="37069.1" cy="40930.9" r="78.7402" /> 
</g>
<g style="fill:#FFFFFF; fill-opacity:1.0; 
stroke:#FFFFFF; stroke-width:39.3701; stroke-opacity:1; 
stroke-linecap:round; stroke-linejoin:round;">
</g>
<g style="fill:#FFFFFF; fill-opacity:1.0; 
stroke:#FFFFFF; stroke-width:0; stroke-opacity:1; 
stroke-linecap:round; stroke-linejoin:round;">
<circle cx="41456.5" cy="41050" r="78.7402" /> 
</g>
<g style="fill:#FFFFFF; fill-opacity:1.0; 
stroke:#FFFFFF; stroke-width:39.3701; stroke-opacity:1; 
stroke-linecap:round; stroke-linejoin:round;">
</g>
<g style="fill:#FFFFFF; fill-opacity:1.0; 
stroke:#FFFFFF; stroke-width:0; stroke-opacity:1; 
stroke-linecap:round; stroke-linejoin:round;">
<circle cx="40412.6" cy="40912.6" r="78.7402" /> 
</g>
<g style="fill:#FFFFFF; fill-opacity:1.0; 
stroke:#FFFFFF; stroke-width:39.3701; stroke-opacity:1; 
stroke-linecap:round; stroke-linejoin:round;">
</g>
<g style="fill:#FFFFFF; fill-opacity:1.0; 
stroke:#FFFFFF; stroke-width:0; stroke-opacity:1; 
stroke-linecap:round; stroke-linejoin:round;">
<circle cx="38750" cy="45306.5" r="78.7402" /> 
</g>
<g style="fill:#FFFFFF; fill-opacity:1.0; 
stroke:#FFFFFF; stroke-width:39.3701; stroke-opacity:1; 
stroke-linecap:round; stroke-linejoin:round;">
</g>
<g style="fill:#FFFFFF; fill-opacity:1.0; 
stroke:#FFFFFF; stroke-width:0; stroke-opacity:1; 
stroke-linecap:round; stroke-linejoin:round;">
<circle cx="35025" cy="47000" r="78.7402" /> 
</g>
<g style="fill:#FFFFFF; fill-opacity:1.0; 
stroke:#FFFFFF; stroke-width:39.3701; stroke-opacity:1; 
stroke-linecap:round; stroke-linejoin:round;">
</g>
<g style="fill:#FFFFFF; fill-opacity:1.0; 
stroke:#FFFFFF; stroke-width:0; stroke-opacity:1; 
stroke-linecap:round; stroke-linejoin:round;">
<circle cx="36800" cy="42975" r="78.7402" /> 
</g>
<g style="fill:#FFFFFF; fill-opacity:1.0; 
stroke:#FFFFFF; stroke-width:39.3701; stroke-opacity:1; 
stroke-linecap:round; stroke-linejoin:round;">
</g>
<g style="fill:#FFFFFF; fill-opacity:1.0; 
stroke:#FFFFFF; stroke-width:0; stroke-opacity:1; 
stroke-linecap:round; stroke-linejoin:round;">
<circle cx="39450" cy="43375" r="78.7402" /> 
</g>
<g style="fill:#FFFFFF; fill-opacity:1.0; 
stroke:#FFFFFF; stroke-width:39.3701; stroke-opacity:1; 
stroke-linecap:round; stroke-linejoin:round;">
</g>
<g style="fill:#FFFFFF; fill-opacity:1.0; 
stroke:#FFFFFF; stroke-width:0; stroke-opacity:1; 
stroke-linecap:round; stroke-linejoin:round;">
<circle cx="41875" cy="45400" r="78.7402" /> 
</g>
<g style="fill:#FFFFFF; fill-opacity:1.0; 
stroke:#FFFFFF; stroke-width:39.3701; stroke-opacity:1; 
stroke-linecap:round; stroke-linejoin:round;">
</g>
<g style="fill:#FFFFFF; fill-opacity:1.0; 
stroke:#FFFFFF; stroke-width:0; stroke-opacity:1; 
stroke-linecap:round; stroke-linejoin:round;">
<circle cx="41875" cy="44975" r="78.7402" /> 
</g>
<g style="fill:#FFFFFF; fill-opacity:1.0; 
stroke:#FFFFFF; stroke-width:39.3701; stroke-opacity:1; 
stroke-linecap:round; stroke-linejoin:round;">
</g>
<g style="fill:#FFFFFF; fill-opacity:1.0; 
stroke:#FFFFFF; stroke-width:0; stroke-opacity:1; 
stroke-linecap:round; stroke-linejoin:round;">
<circle cx="41900" cy="44425" r="78.7402" /> 
</g>
<g style="fill:#FFFFFF; fill-opacity:1.0; 
stroke:#FFFFFF; stroke-width:39.3701; stroke-opacity:1; 
stroke-linecap:round; stroke-linejoin:round;">
</g>
<g style="fill:#FFFFFF; fill-opacity:1.0; 
stroke:#FFFFFF; stroke-width:0; stroke-opacity:1; 
stroke-linecap:round; stroke-linejoin:round;">
<circle cx="33600" cy="46400" r="196.85" /> 
</g>
<g style="fill:#FFFFFF; fill-opacity:1.0; 
stroke:#FFFFFF; stroke-width:39.3701; stroke-opacity:1; 
stroke-linecap:round; stroke-linejoin:round;">
</g>
<g style="fill:#FFFFFF; fill-opacity:1.0; 
stroke:#FFFFFF; stroke-width:0; stroke-opacity:1; 
stroke-linecap:round; stroke-linejoin:round;">
<circle cx="32600" cy="46400" r="196.85" /> 
</g>
<g style="fill:#FFFFFF; fill-opacity:1.0; 
stroke:#FFFFFF; stroke-width:39.3701; stroke-opacity:1; 
stroke-linecap:round; stroke-linejoin:round;">
</g>
<g style="fill:#FFFFFF; fill-opacity:1.0; 
stroke:#FFFFFF; stroke-width:0; stroke-opacity:1; 
stroke-linecap:round; stroke-linejoin:round;">
<circle cx="33600" cy="45400" r="196.85" /> 
</g>
<g style="fill:#FFFFFF; fill-opacity:1.0; 
stroke:#FFFFFF; stroke-width:39.3701; stroke-opacity:1; 
stroke-linecap:round; stroke-linejoin:round;">
</g>
<g style="fill:#FFFFFF; fill-opacity:1.0; 
stroke:#FFFFFF; stroke-width:0; stroke-opacity:1; 
stroke-linecap:round; stroke-linejoin:round;">
<circle cx="32600" cy="45400" r="196.85" /> 
</g>
<g style="fill:#FFFFFF; fill-opacity:1.0; 
stroke:#FFFFFF; stroke-width:39.3701; stroke-opacity:1; 
stroke-linecap:round; stroke-linejoin:round;">
</g>
<g style="fill:#FFFFFF; fill-opacity:1.0; 
stroke:#FFFFFF; stroke-width:0; stroke-opacity:1; 
stroke-linecap:round; stroke-linejoin:round;">
<circle cx="33600" cy="44400" r="196.85" /> 
</g>
<g style="fill:#FFFFFF; fill-opacity:1.0; 
stroke:#FFFFFF; stroke-width:39.3701; stroke-opacity:1; 
stroke-linecap:round; stroke-linejoin:round;">
</g>
<g style="fill:#FFFFFF; fill-opacity:1.0; 
stroke:#FFFFFF; stroke-width:0; stroke-opacity:1; 
stroke-linecap:round; stroke-linejoin:round;">
<circle cx="32600" cy="44400" r="196.85" /> 
</g>
<g style="fill:#FFFFFF; fill-opacity:1.0; 
stroke:#FFFFFF; stroke-width:39.3701; stroke-opacity:1; 
stroke-linecap:round; stroke-linejoin:round;">
</g>
<g style="fill:#FFFFFF; fill-opacity:1.0; 
stroke:#FFFFFF; stroke-width:0; stroke-opacity:1; 
stroke-linecap:round; stroke-linejoin:round;">
<circle cx="33600" cy="43400" r="196.85" /> 
</g>
<g style="fill:#FFFFFF; fill-opacity:1.0; 
stroke:#FFFFFF; stroke-width:39.3701; stroke-opacity:1; 
stroke-linecap:round; stroke-linejoin:round;">
</g>
<g style="fill:#FFFFFF; fill-opacity:1.0; 
stroke:#FFFFFF; stroke-width:0; stroke-opacity:1; 
stroke-linecap:round; stroke-linejoin:round;">
<circle cx="32600" cy="43400" r="196.85" /> 
</g>
<g style="fill:#FFFFFF; fill-opacity:1.0; 
stroke:#FFFFFF; stroke-width:39.3701; stroke-opacity:1; 
stroke-linecap:round; stroke-linejoin:round;">
</g>
<g style="fill:#FFFFFF; fill-opacity:1.0; 
stroke:#FFFFFF; stroke-width:0; stroke-opacity:1; 
stroke-linecap:round; stroke-linejoin:round;">
<circle cx="33600" cy="42400" r="196.85" /> 
</g>
<g style="fill:#FFFFFF; fill-opacity:1.0; 
stroke:#FFFFFF; stroke-width:39.3701; stroke-opacity:1; 
stroke-linecap:round; stroke-linejoin:round;">
</g>
<g style="fill:#FFFFFF; fill-opacity:1.0; 
stroke:#FFFFFF; stroke-width:0; stroke-opacity:1; 
stroke-linecap:round; stroke-linejoin:round;">
<circle cx="32600" cy="42400" r="196.85" /> 
</g>
<g style="fill:#FFFFFF; fill-opacity:1.0; 
stroke:#FFFFFF; stroke-width:39.3701; stroke-opacity:1; 
stroke-linecap:round; stroke-linejoin:round;">
</g>
<g style="fill:#FFFFFF; fill-opacity:1.0; 
stroke:#FFFFFF; stroke-width:0; stroke-opacity:1; 
stroke-linecap:round; stroke-linejoin:round;">
<circle cx="33600" cy="41400" r="196.85" /> 
</g>
<g style="fill:#FFFFFF; fill-opacity:1.0; 
stroke:#FFFFFF; stroke-width:39.3701; stroke-opacity:1; 
stroke-linecap:round; stroke-linejoin:round;">
</g>
<g style="fill:#FFFFFF; fill-opacity:1.0; 
stroke:#FFFFFF; stroke-width:0; stroke-opacity:1; 
stroke-linecap:round; stroke-linejoin:round;">
<circle cx="32600" cy="41400" r="196.85" /> 
</g>
<g style="fill:#FFFFFF; fill-opacity:1.0; 
stroke:#FFFFFF; stroke-width:39.3701; stroke-opacity:1; 
stroke-linecap:round; stroke-linejoin:round;">
</g>
<g style="fill:#FFFFFF; fill-opacity:1.0; 
stroke:#FFFFFF; stroke-width:0; stroke-opacity:1; 
stroke-linecap:round; stroke-linejoin:round;">
<circle cx="33600" cy="40400" r="196.85" /> 
</g>
<g style="fill:#FFFFFF; fill-opacity:1.0; 
stroke:#FFFFFF; stroke-width:39.3701; stroke-opacity:1; 
stroke-linecap:round; stroke-linejoin:round;">
</g>
<g style="fill:#FFFFFF; fill-opacity:1.0; 
stroke:#FFFFFF; stroke-width:0; stroke-opacity:1; 
stroke-linecap:round; stroke-linejoin:round;">
<circle cx="32600" cy="40400" r="196.85" /> 
</g>
<g style="fill:#FFFFFF; fill-opacity:1.0; 
stroke:#FFFFFF; stroke-width:39.3701; stroke-opacity:1; 
stroke-linecap:round; stroke-linejoin:round;">
</g>
<g style="fill:#FFFFFF; fill-opacity:1.0; 
stroke:#FFFFFF; stroke-width:0; stroke-opacity:1; 
stroke-linecap:round; stroke-linejoin:round;">
<circle cx="38100" cy="48050" r="196.85" /> 
</g>
<g style="fill:#FFFFFF; fill-opacity:1.0; 
stroke:#FFFFFF; stroke-width:39.3701; stroke-opacity:1; 
stroke-linecap:round; stroke-linejoin:round;">
</g>
<g style="fill:#FFFFFF; fill-opacity:1.0; 
stroke:#FFFFFF; stroke-width:0; stroke-opacity:1; 
stroke-linecap:round; stroke-linejoin:round;">
<circle cx="39100" cy="48050" r="196.85" /> 
</g>
<g style="fill:#FFFFFF; fill-opacity:1.0; 
stroke:#FFFFFF; stroke-width:39.3701; stroke-opacity:1; 
stroke-linecap:round; stroke-linejoin:round;">
</g>
<g style="fill:#FFFFFF; fill-opacity:1.0; 
stroke:#FFFFFF; stroke-width:0; stroke-opacity:1; 
stroke-linecap:round; stroke-linejoin:round;">
<circle cx="40100" cy="48050" r="196.85" /> 
</g>
<g style="fill:#FFFFFF; fill-opacity:1.0; 
stroke:#FFFFFF; stroke-width:39.3701; stroke-opacity:1; 
stroke-linecap:round; stroke-linejoin:round;">
</g>
<g style="fill:#FFFFFF; fill-opacity:1.0; 
stroke:#FFFFFF; stroke-width:0; stroke-opacity:1; 
stroke-linecap:round; stroke-linejoin:round;">
<circle cx="41100" cy="48050" r="196.85" /> 
</g>
<g style="fill:#FFFFFF; fill-opacity:1.0; 
stroke:#FFFFFF; stroke-width:39.3701; stroke-opacity:1; 
stroke-linecap:round; stroke-linejoin:round;">
</g>
<g style="fill:#FFFFFF; fill-opacity:1.0; 
stroke:#FFFFFF; stroke-width:0; stroke-opacity:1; 
stroke-linecap:round; stroke-linejoin:round;">
<circle cx="42100" cy="48050" r="196.85" /> 
</g>
<g style="fill:#FFFFFF; fill-opacity:1.0; 
stroke:#FFFFFF; stroke-width:39.3701; stroke-opacity:1; 
stroke-linecap:round; stroke-linejoin:round;">
</g>
<g style="fill:#FFFFFF; fill-opacity:1.0; 
stroke:#FFFFFF; stroke-width:0; stroke-opacity:1; 
stroke-linecap:round; stroke-linejoin:round;">
<circle cx="43100" cy="48050" r="196.85" /> 
</g>
<g style="fill:#FFFFFF; fill-opacity:1.0; 
stroke:#FFFFFF; stroke-width:39.3701; stroke-opacity:1; 
stroke-linecap:round; stroke-linejoin:round;">
</g>
<g style="fill:#FFFFFF; fill-opacity:1.0; 
stroke:#FFFFFF; stroke-width:0; stroke-opacity:1; 
stroke-linecap:round; stroke-linejoin:round;">
<circle cx="35150" cy="41425" r="196.85" /> 
</g>
<g style="fill:#FFFFFF; fill-opacity:1.0; 
stroke:#FFFFFF; stroke-width:39.3701; stroke-opacity:1; 
stroke-linecap:round; stroke-linejoin:round;">
</g>
<g style="fill:#FFFFFF; fill-opacity:1.0; 
stroke:#FFFFFF; stroke-width:0; stroke-opacity:1; 
stroke-linecap:round; stroke-linejoin:round;">
<circle cx="35150" cy="40425" r="196.85" /> 
</g>
<g style="fill:#FFFFFF; fill-opacity:1.0; 
stroke:#FFFFFF; stroke-width:39.3701; stroke-opacity:1; 
stroke-linecap:round; stroke-linejoin:round;">
</g>
<g style="fill:#000000; fill-opacity:1.0; 
stroke:#000000; stroke-width:39.3701; stroke-opacity:1; 
stroke-linecap:round; stroke-linejoin:round;">
</g> 
</svg>
